<?xml version="1.0" encoding="UTF-8" standalone="no"?>
<!DOCTYPE svg PUBLIC "-//W3C//DTD SVG 1.1//EN" "http://www.w3.org/Graphics/SVG/1.1/DTD/svg11.dtd">
<svg width="100%" height="100%" viewBox="0 0 817 164" version="1.1" xmlns="http://www.w3.org/2000/svg" xmlns:xlink="http://www.w3.org/1999/xlink" xml:space="preserve" xmlns:serif="http://www.serif.com/" style="fill-rule:evenodd;clip-rule:evenodd;stroke-linejoin:round;stroke-miterlimit:2;">
    <g transform="matrix(1,0,0,1,0.00999997,0.0582705)">
        <g id="Capa_1-2">
            <path d="M138.75,118.14L169.14,123.57C169.14,123.57 152.06,116.71 138.75,118.14Z" style="fill:rgb(51,51,51);fill-rule:nonzero;"/>
            <path d="M186.59,136.41C186.59,127.35 144.82,120.01 93.29,120.01C41.76,120.01 0,127.35 0,136.41C-0.013,136.523 -0.013,136.637 0,136.75C0.078,137.334 0.298,137.89 0.64,138.37C3.1,142.47 14.64,151.81 68.64,154.73C68.64,154.73 59.04,152.78 51.12,151.04C63.78,152.17 78.12,152.8 93.28,152.8C126.9,152.8 156.36,149.68 172.78,144.99C169.432,147.038 165.944,148.846 162.34,150.4C189.18,145.57 186.59,136.41 186.59,136.41Z" style="fill:rgb(51,51,51);fill-rule:nonzero;"/>
            <path d="M88.16,161C88.16,161 98.34,164.4 126.71,163.1C148.06,162.1 153.93,156.67 153.93,156.67C141,161.43 88.16,161 88.16,161Z" style="fill:rgb(51,51,51);fill-rule:nonzero;"/>
            <path d="M13.9,124.93L35,121C35,121 22.55,119.51 13.9,124.93Z" style="fill:url(#_Linear1);fill-rule:nonzero;"/>
            <path d="M146.1,77.67C146.1,77.67 139.752,93.125 139.456,117.624C139.371,124.619 139.78,132.35 140.97,140.67L123.54,140.67C117.37,87.26 146.1,77.67 146.1,77.67Z" style="fill:rgb(179,179,179);fill-rule:nonzero;"/>
            <path d="M49.65,141.89L81.65,141.34C80.659,134.16 78.606,127.167 75.56,120.59L85.28,133.45C83.59,108 100.08,87.8 100.08,87.8C100.08,87.8 86.41,113.8 91.5,141.16L118.98,140.69C104,55.46 210.71,31.9 227.5,28.4C228.903,28.045 229.939,26.841 230.08,25.4L231.36,16.53C231.694,14.727 230.612,12.94 228.86,12.4L216.86,9.5L211.41,5.29C208.958,3.349 205.839,2.447 202.73,2.78L193.62,3.78C193.201,2.251 192.09,1.003 190.62,0.41C188.17,-0.65 185.47,0.15 184.62,2.2C184.274,3.031 184.246,3.96 184.54,4.81L178,5.6C147.4,4.7 67.78,1.07 38.29,41.87C8.8,82.67 49.65,141.89 49.65,141.89ZM201.65,11.45L201.65,11.42C201.65,9.456 203.266,7.84 205.23,7.84C207.194,7.84 208.81,9.456 208.81,11.42C208.81,13.376 207.206,14.989 205.25,15C203.297,15 201.686,13.403 201.67,11.45L201.65,11.45Z" style="fill:rgb(179,179,179);fill-rule:nonzero;"/>
            <path d="M297.24,126.85C283.907,126.85 273.76,123.147 266.8,115.74C259.84,108.333 256.353,97.813 256.34,84.18C256.23,77.972 257.313,71.8 259.53,66C261.48,60.952 264.46,56.364 268.28,52.53C272.036,48.823 276.554,45.977 281.52,44.19C286.861,42.263 292.503,41.305 298.18,41.36C301.35,41.333 304.515,41.588 307.64,42.12C310.157,42.561 312.645,43.155 315.09,43.9C316.915,44.46 318.694,45.162 320.41,46C321.83,46.71 322.85,47.26 323.48,47.65L318.16,62.55C315.358,61.095 312.408,59.945 309.36,59.12C305.656,58.13 301.834,57.653 298,57.7C295.163,57.697 292.346,58.177 289.67,59.12C286.945,60.061 284.474,61.618 282.45,63.67C280.229,65.985 278.524,68.747 277.45,71.77C276.105,75.624 275.465,79.689 275.56,83.77C275.532,87.338 275.949,90.895 276.8,94.36C277.528,97.425 278.891,100.304 280.8,102.81C282.736,105.238 285.23,107.163 288.07,108.42C291.501,109.887 295.21,110.593 298.94,110.49C301.355,110.506 303.768,110.349 306.16,110.02C308.068,109.744 309.96,109.37 311.83,108.9C313.322,108.516 314.782,108.022 316.2,107.42C317.46,106.87 318.61,106.35 319.63,105.88L324.71,120.66C321.254,122.571 317.553,124.001 313.71,124.91C308.327,126.267 302.791,126.919 297.24,126.85Z" style="fill:rgb(51,51,51);fill-rule:nonzero;"/>
            <path d="M360.13,126.38C355.916,126.428 351.717,125.872 347.66,124.73C344.83,123.911 342.235,122.43 340.09,120.41C338.235,118.554 336.927,116.221 336.31,113.67C335.609,110.749 335.273,107.753 335.31,104.75L335.31,36.3L352.93,33.47L352.93,101.2C352.914,102.628 353.031,104.054 353.28,105.46C353.474,106.616 353.94,107.709 354.64,108.65C355.411,109.594 356.409,110.327 357.54,110.78C359.164,111.407 360.88,111.765 362.62,111.84L360.13,126.38Z" style="fill:rgb(51,51,51);fill-rule:nonzero;"/>
            <path d="M391.93,45.05C392.072,47.932 390.92,50.733 388.79,52.68C384.579,56.356 378.231,56.356 374.02,52.68C371.89,50.733 370.738,47.932 370.88,45.05C370.731,42.174 371.877,39.376 374,37.43C378.206,33.741 384.564,33.741 388.77,37.43C390.908,39.369 392.069,42.167 391.93,45.05ZM390.27,125.2L372.66,125.2L372.66,63L390.27,63L390.27,125.2Z" style="fill:rgb(51,51,51);fill-rule:nonzero;"/>
            <path d="M441,92.22C441,86.54 440.273,82.52 438.82,80.16C437.36,77.8 434.82,76.61 431.31,76.61C430.164,76.612 429.02,76.672 427.88,76.79C426.7,76.91 425.55,77.05 424.45,77.2L424.45,125.2L406.82,125.2L406.82,65.2C408.31,64.8 410.07,64.39 412.08,63.96C414.09,63.53 416.22,63.13 418.46,62.77C420.7,62.41 423.01,62.14 425.38,61.95C427.75,61.76 430.07,61.65 432.38,61.65C436.102,61.522 439.815,62.103 443.32,63.36C445.828,64.339 448.161,65.717 450.23,67.44C455.46,63.846 461.617,61.835 467.96,61.65C472.138,61.508 476.301,62.212 480.2,63.72C483.213,64.965 485.845,66.983 487.83,69.57C489.783,72.242 491.116,75.317 491.73,78.57C492.466,82.389 492.821,86.271 492.79,90.16L492.79,125.2L475.15,125.2L475.15,92.2C475.15,86.52 474.42,82.5 472.96,80.14C471.5,77.78 468.96,76.59 465.45,76.59C464.092,76.657 462.748,76.895 461.45,77.3C459.971,77.687 458.557,78.287 457.25,79.08C457.817,80.945 458.176,82.866 458.32,84.81C458.48,86.81 458.56,88.957 458.56,91.25L458.56,125.2L441,125.2L441,92.22Z" style="fill:rgb(51,51,51);fill-rule:nonzero;"/>
            <path d="M531.06,61.36C535.461,61.243 539.852,61.844 544.06,63.14C547.214,64.124 550.079,65.869 552.4,68.22C554.515,70.48 556.037,73.228 556.83,76.22C557.734,79.652 558.171,83.191 558.13,86.74L558.13,123.39C555.61,123.937 552.103,124.587 547.61,125.34C542.212,126.149 536.758,126.523 531.3,126.46C527.626,126.491 523.959,126.136 520.36,125.4C517.344,124.793 514.475,123.608 511.91,121.91C509.569,120.319 507.691,118.134 506.47,115.58C505.126,112.574 504.48,109.302 504.58,106.01C504.48,102.797 505.236,99.615 506.77,96.79C508.18,94.327 510.193,92.262 512.62,90.79C515.207,89.238 518.042,88.142 521,87.55C524.226,86.874 527.514,86.538 530.81,86.55C532.844,86.537 534.877,86.637 536.9,86.85C538.358,86.99 539.803,87.247 541.22,87.62L541.22,86C541.339,83.327 540.355,80.718 538.5,78.79C536.687,76.93 533.537,76 529.05,76C526.081,76 523.117,76.217 520.18,76.65C517.606,77.008 515.073,77.621 512.62,78.48L510.37,64.3C511.37,63.99 512.68,63.65 514.22,63.3C515.76,62.95 517.42,62.64 519.22,62.36C521.02,62.08 522.94,61.85 524.95,61.65C526.96,61.45 529,61.36 531.06,61.36ZM532.48,112.9C534.21,112.9 535.87,112.9 537.48,112.79C538.749,112.74 540.014,112.62 541.27,112.43L541.27,99.07C540.56,98.92 539.49,98.76 538.07,98.6C535.222,98.261 532.343,98.281 529.5,98.66C528.168,98.824 526.871,99.202 525.66,99.78C524.593,100.272 523.675,101.038 523,102C522.34,103.06 522.013,104.293 522.06,105.54C522.06,108.313 522.983,110.227 524.83,111.28C527.199,112.467 529.833,113.025 532.48,112.9Z" style="fill:rgb(51,51,51);fill-rule:nonzero;"/>
            <g transform="matrix(0.860747,0,0,0.775567,53.5633,28.4703)">
                <path d="M641,126.85C627.667,126.85 617.523,123.147 610.57,115.74C603.617,108.333 600.123,97.813 600.09,84.18C599.983,77.971 601.07,71.799 603.29,66C605.232,60.966 608.198,56.389 612,52.56C615.76,48.857 620.277,46.012 625.24,44.22C630.584,42.293 636.229,41.335 641.91,41.39C645.08,41.364 648.245,41.618 651.37,42.15C653.887,42.592 656.375,43.187 658.82,43.93C660.654,44.481 662.443,45.173 664.17,46C665.58,46.71 666.61,47.26 667.24,47.65L661.92,62.55C659.114,61.095 656.161,59.945 653.11,59.12C649.393,58.125 645.557,57.647 641.71,57.7C638.87,57.698 636.05,58.179 633.37,59.12C630.649,60.063 628.182,61.62 626.16,63.67C623.939,65.985 622.234,68.747 621.16,71.77C619.806,75.622 619.162,79.688 619.26,83.77C619.236,87.338 619.656,90.896 620.51,94.36C621.234,97.427 622.597,100.306 624.51,102.81C626.452,105.236 628.949,107.161 631.79,108.42C635.221,109.888 638.93,110.594 642.66,110.49C645.071,110.506 647.481,110.349 649.87,110.02C651.778,109.746 653.671,109.372 655.54,108.9C657.035,108.518 658.499,108.023 659.92,107.42C661.18,106.87 662.32,106.35 663.35,105.88L668.43,120.66C664.974,122.571 661.273,124.001 657.43,124.91C652.06,126.263 646.537,126.915 641,126.85Z" style="fill:rgb(51,51,51);fill-rule:nonzero;"/>
            </g>
            <g transform="matrix(1,0,0,1,-38,0)">
                <path d="M716.53,78.62C714.96,78.23 713.1,77.82 710.98,77.38C708.721,76.936 706.423,76.718 704.12,76.73C702.782,76.745 701.446,76.845 700.12,77.03C698.942,77.157 697.775,77.375 696.63,77.68L696.63,125.2L679.06,125.2L679.06,66.33C682.723,65.081 686.452,64.037 690.23,63.2C694.946,62.167 699.763,61.671 704.59,61.72C705.54,61.72 706.68,61.78 708.02,61.9C709.36,62.02 710.7,62.17 712.02,62.37C713.34,62.57 714.7,62.8 716.02,63.08C717.191,63.309 718.339,63.644 719.45,64.08L716.53,78.62Z" style="fill:rgb(51,51,51);fill-rule:nonzero;"/>
            </g>
            <g transform="matrix(1,0,0,1,-38,0)">
                <path d="M782,123.07C778.193,124.114 774.326,124.922 770.42,125.49C765.491,126.257 760.509,126.635 755.52,126.62C751.031,126.754 746.558,126.031 742.34,124.49C739.087,123.251 736.215,121.183 734.01,118.49C731.896,115.795 730.401,112.667 729.63,109.33C728.734,105.495 728.298,101.568 728.33,97.63L728.33,63L746,63L746,95.53C746,101.197 746.747,105.293 748.24,107.82C749.733,110.347 752.533,111.607 756.64,111.6C757.9,111.6 759.24,111.6 760.64,111.43C762.04,111.26 763.31,111.17 764.42,111.01L764.42,63L782,63L782,123.07Z" style="fill:rgb(51,51,51);fill-rule:nonzero;"/>
            </g>
            <g transform="matrix(1,0,0,1,-38,0)">
                <path d="M823.21,80.45L835.57,63L853.78,63L832.19,93.26C836.908,98.643 841.309,104.295 845.37,110.19C848.728,115.011 851.81,120.019 854.6,125.19L835.71,125.19L833.33,120.75C832.39,118.98 831.33,117.12 830.14,115.19C829.087,113.427 827.85,111.781 826.45,110.28C825.157,108.947 823.89,107.727 822.65,106.62C821.46,107.62 820.24,108.77 819.01,110.01C817.657,111.399 816.481,112.951 815.51,114.63C814.403,116.477 813.313,118.307 812.24,120.12C811.167,121.933 810.22,123.623 809.4,125.19L791.48,125.19C792.473,123.25 793.78,120.917 795.4,118.19C797.02,115.463 798.803,112.677 800.75,109.83C802.702,106.938 804.802,104.147 807.04,101.47C809.293,98.763 811.507,96.22 813.68,93.84L802.53,78.05L792,63L811,63L823.21,80.45Z" style="fill:rgb(51,51,51);fill-rule:nonzero;"/>
            </g>
        </g>
    </g>
    <defs>
        <linearGradient id="_Linear1" x1="0" y1="0" x2="1" y2="0" gradientUnits="userSpaceOnUse" gradientTransform="matrix(444.999,0,0,444.999,307.19,626.692)"><stop offset="0" style="stop-color:rgb(126,199,218);stop-opacity:1"/><stop offset="1" style="stop-color:rgb(134,202,220);stop-opacity:1"/></linearGradient>
    </defs>
</svg>
